# Blender v2.83.18 OBJ File: ''
# www.blender.org
mtllib playerMouth.mtl
o RLB_Cube.003
v -0.175069 -0.194865 0.144428
v -0.174952 -0.177148 0.174622
v -0.174463 -0.156568 0.202768
v -0.174684 -0.133993 0.229009
v -0.146833 -0.184650 0.133279
v -0.145702 -0.166289 0.163372
v -0.144469 -0.144846 0.190233
v -0.149101 -0.198948 0.103776
v -0.147479 -0.209085 0.067037
v -0.145934 -0.214977 0.022874
v -0.130754 -0.190289 0.095778
v -0.118816 -0.174797 0.113991
v -0.118672 -0.155236 0.150508
v -0.126755 -0.196027 0.065045
v -0.108731 -0.181176 0.069245
v -0.124176 -0.200318 0.022386
v -0.105051 -0.184924 0.023141
v -0.094511 -0.154488 0.111815
v -0.099035 -0.143793 0.140911
v -0.088616 -0.162439 0.070060
v -0.085726 -0.166788 0.023483
v -0.067867 -0.147641 0.023563
v -0.070744 -0.143003 0.070406
v -0.145778 -0.093468 0.238374
v -0.148259 -0.060069 0.262330
v -0.144557 -0.120609 0.215041
v -0.117437 -0.044794 0.238092
v -0.115078 -0.106347 0.199828
v -0.116205 -0.077702 0.220604
v -0.115404 -0.132920 0.175419
v -0.086752 -0.089880 0.182555
v -0.090123 -0.061823 0.203176
v -0.091426 -0.023572 0.219472
v -0.086027 -0.120556 0.152854
v -0.076163 -0.134004 0.112581
v -0.071870 -0.050329 0.188478
v -0.068921 -0.021265 0.195938
v -0.058008 -0.093270 0.136731
v -0.060486 -0.063830 0.166543
v -0.051785 -0.023676 0.173996
v -0.056729 -0.112082 0.105267
v -0.053429 -0.122178 0.067722
v -0.050922 -0.127253 0.022946
v -0.042136 -0.053546 0.144132
v -0.034801 -0.023373 0.148430
v -0.042366 -0.094913 0.096031
v -0.035354 -0.070735 0.113852
v -0.018720 -0.028787 0.113763
v -0.037649 -0.100406 0.065386
v -0.024123 -0.076373 0.069549
v -0.010345 -0.047199 0.070321
v -0.034524 -0.104895 0.022483
v -0.019471 -0.081092 0.023280
v -0.007672 -0.011029 0.095224
v -0.000314 -0.018024 0.066383
v -0.005538 -0.054267 0.023628
v 0.005957 -0.021833 0.023034
v -0.205039 -0.188148 -0.182517
v -0.204942 -0.167087 -0.212734
v -0.173423 -0.194267 -0.142461
v -0.173995 -0.176282 -0.172995
v -0.174462 -0.155257 -0.201700
v -0.175460 -0.131511 -0.229266
v -0.145853 -0.214887 -0.000445
v -0.146902 -0.208596 -0.067130
v -0.145771 -0.214798 -0.023764
v -0.147913 -0.198417 -0.102312
v -0.145312 -0.183774 -0.131496
v -0.144837 -0.164801 -0.162309
v -0.144654 -0.143219 -0.189216
v -0.124200 -0.200294 -0.000428
v -0.105021 -0.184854 -0.000335
v -0.126676 -0.195826 -0.065071
v -0.124225 -0.200269 -0.023242
v -0.108554 -0.180781 -0.069490
v -0.104991 -0.184783 -0.023812
v -0.130315 -0.190019 -0.094625
v -0.118352 -0.174048 -0.113303
v -0.118621 -0.153943 -0.149862
v -0.085673 -0.166683 -0.000352
v -0.088638 -0.162065 -0.070680
v -0.085619 -0.166577 -0.024186
v -0.094794 -0.153847 -0.112098
v -0.099335 -0.141953 -0.141662
v -0.067898 -0.147618 -0.000381
v -0.070866 -0.142668 -0.071080
v -0.067930 -0.147595 -0.024325
v -0.145702 -0.118844 -0.214194
v -0.146316 -0.089964 -0.237764
v -0.116233 -0.130458 -0.175706
v -0.118696 -0.105419 -0.200408
v -0.117661 -0.070043 -0.222496
v -0.128308 -0.052109 -0.241910
v -0.122946 -0.021211 -0.248162
v -0.106336 -0.025957 -0.230032
v -0.076298 -0.132399 -0.114182
v -0.086215 -0.113426 -0.158149
v -0.098888 -0.096957 -0.187163
v -0.093837 -0.067747 -0.200281
v -0.075291 -0.070543 -0.178420
v -0.087487 -0.026905 -0.210797
v -0.069237 -0.028645 -0.190675
v -0.050959 -0.127218 -0.000506
v -0.053415 -0.121654 -0.068425
v -0.050995 -0.127182 -0.023957
v -0.056589 -0.110969 -0.105203
v -0.057353 -0.091172 -0.135421
v -0.055750 -0.062119 -0.157808
v -0.051649 -0.025705 -0.170217
v -0.034526 -0.104809 -0.000471
v -0.019445 -0.080940 -0.000407
v -0.037678 -0.099998 -0.065723
v -0.034528 -0.104724 -0.023425
v -0.024173 -0.075865 -0.069869
v -0.019418 -0.080787 -0.024094
v -0.042421 -0.094420 -0.095607
v -0.035414 -0.070091 -0.112931
v -0.019099 -0.028266 -0.113294
v -0.010540 -0.046739 -0.070852
v -0.041330 -0.053022 -0.140666
v -0.035107 -0.023753 -0.146442
v -0.005536 -0.054127 -0.000398
v 0.005869 -0.021799 -0.000771
v -0.005533 -0.053987 -0.024423
v -0.000664 -0.017527 -0.067290
v 0.005781 -0.021765 -0.024576
v -0.007905 -0.010118 -0.094975
vt 0.192132 0.302163
vt 0.246204 0.276943
vt 0.274372 0.325738
vt 0.220929 0.352322
vt 0.171432 0.382429
vt 0.140257 0.331120
vt 0.325852 0.304025
vt 0.342204 0.338403
vt 0.312690 0.372835
vt 0.249776 0.398669
vt 0.394138 0.335875
vt 0.389132 0.292951
vt 0.388189 0.376433
vt 0.464871 0.333897
vt 0.463823 0.287658
vt 0.463596 0.376371
vt 0.318603 0.426938
vt 0.268907 0.435713
vt 0.387500 0.423510
vt 0.462820 0.421683
vt 0.462341 0.466084
vt 0.386934 0.468253
vt 0.089764 0.361366
vt 0.122298 0.414696
vt 0.072548 0.450703
vt 0.156040 0.467201
vt 0.109663 0.505321
vt 0.064285 0.550869
vt 0.017005 0.494855
vt 0.204684 0.431559
vt 0.190229 0.520260
vt 0.143564 0.555649
vt 0.096820 0.610112
vt 0.248093 0.480185
vt 0.317617 0.473585
vt 0.170548 0.591387
vt 0.145347 0.637450
vt 0.274493 0.546528
vt 0.216416 0.584138
vt 0.190420 0.652181
vt 0.329090 0.523194
vt 0.390833 0.514048
vt 0.462841 0.510911
vt 0.255118 0.618334
vt 0.239103 0.670778
vt 0.343222 0.561445
vt 0.310931 0.601640
vt 0.303600 0.680289
vt 0.393718 0.559601
vt 0.385413 0.606243
vt 0.381394 0.661715
vt 0.462936 0.557758
vt 0.460781 0.605509
vt 0.384135 0.716178
vt 0.332730 0.719479
vt 0.458976 0.657305
vt 0.458136 0.717941
vt 0.862364 0.343558
vt 0.809607 0.313622
vt 0.838701 0.260366
vt 0.893207 0.291550
vt 0.780572 0.363514
vt 0.726152 0.335341
vt 0.755205 0.287313
vt 0.830089 0.394016
vt 0.502513 0.334198
vt 0.503164 0.288000
vt 0.501792 0.376819
vt 0.609438 0.339378
vt 0.540145 0.335009
vt 0.542484 0.289262
vt 0.615631 0.297643
vt 0.614662 0.380447
vt 0.539978 0.377737
vt 0.659288 0.343881
vt 0.675847 0.311316
vt 0.688703 0.379798
vt 0.751396 0.407735
vt 0.501225 0.422262
vt 0.614742 0.427267
vt 0.539605 0.423186
vt 0.683182 0.432709
vt 0.733739 0.444655
vt 0.500689 0.466568
vt 0.614236 0.471849
vt 0.539048 0.467203
vt 0.879424 0.426883
vt 0.915136 0.376070
vt 0.798124 0.442572
vt 0.847651 0.474720
vt 0.897395 0.526250
vt 0.929115 0.467321
vt 0.965545 0.593829
vt 0.924314 0.603382
vt 0.943035 0.542054
vt 0.685098 0.480896
vt 0.762050 0.497063
vt 0.819249 0.507068
vt 0.849451 0.553760
vt 0.803844 0.568160
vt 0.882051 0.620827
vt 0.838610 0.636457
vt 0.500313 0.511461
vt 0.609185 0.517888
vt 0.537781 0.512005
vt 0.669528 0.529739
vt 0.721684 0.556568
vt 0.765354 0.599482
vt 0.797765 0.658119
vt 0.499666 0.558445
vt 0.498974 0.606435
vt 0.604553 0.563107
vt 0.536389 0.559021
vt 0.611672 0.610049
vt 0.537162 0.607049
vt 0.653777 0.566494
vt 0.684279 0.607805
vt 0.690434 0.686063
vt 0.614704 0.665341
vt 0.735292 0.626889
vt 0.752387 0.677261
vt 0.498345 0.658428
vt 0.498342 0.718755
vt 0.537692 0.658823
vt 0.611376 0.719544
vt 0.538514 0.718715
vt 0.660795 0.725109
vn 0.4690 -0.7351 0.4896
vn 0.4567 -0.7675 0.4499
vn 0.5006 -0.7648 0.4055
vn 0.4980 -0.7229 0.4790
vn 0.5236 -0.6458 0.5557
vn 0.5000 -0.6660 0.5536
vn 0.5163 -0.8040 0.2949
vn 0.5486 -0.7920 0.2680
vn 0.5799 -0.7478 0.3233
vn 0.5696 -0.6887 0.4485
vn 0.5733 -0.8010 0.1724
vn 0.5333 -0.8265 0.1804
vn 0.6367 -0.7503 0.1780
vn 0.5894 -0.8058 0.0577
vn 0.5541 -0.8302 0.0609
vn 0.6532 -0.7551 0.0560
vn 0.6706 -0.6798 0.2970
vn 0.6484 -0.6433 0.4071
vn 0.6938 -0.6990 0.1733
vn 0.7067 -0.7054 0.0549
vn 0.7507 -0.6583 0.0552
vn 0.7461 -0.6432 0.1722
vn 0.5182 -0.6288 0.5798
vn 0.5618 -0.5636 0.6056
vn 0.6273 -0.4285 0.6502
vn 0.6166 -0.5001 0.6080
vn 0.6466 -0.3936 0.6534
vn 0.6659 -0.3328 0.6677
vn 0.6515 -0.3755 0.6592
vn 0.5920 -0.5960 0.5425
vn 0.6912 -0.4420 0.5717
vn 0.6883 -0.3313 0.6453
vn 0.6922 -0.2730 0.6681
vn 0.6967 -0.5486 0.4622
vn 0.7364 -0.6056 0.3017
vn 0.7320 -0.2897 0.6166
vn 0.7339 -0.2535 0.6301
vn 0.7772 -0.4740 0.4138
vn 0.7684 -0.3569 0.5312
vn 0.7838 -0.2638 0.5622
vn 0.7821 -0.5515 0.2901
vn 0.7862 -0.5944 0.1691
vn 0.7889 -0.6120 0.0557
vn 0.8249 -0.3312 0.4581
vn 0.8311 -0.2903 0.4743
vn 0.8212 -0.5037 0.2681
vn 0.8436 -0.4089 0.3480
vn 0.8831 -0.3211 0.3421
vn 0.8266 -0.5352 0.1740
vn 0.8667 -0.4532 0.2086
vn 0.9067 -0.3552 0.2275
vn 0.8277 -0.5582 0.0586
vn 0.8687 -0.4908 0.0675
vn 0.9292 -0.2945 0.2230
vn 0.9165 -0.2706 0.2946
vn 0.9170 -0.3918 0.0743
vn 0.9425 -0.3257 0.0754
vn 0.4894 -0.6786 -0.5477
vn 0.4684 -0.7245 -0.5056
vn 0.4527 -0.7242 -0.5201
vn 0.5044 -0.7111 -0.4898
vn 0.5062 -0.7570 -0.4132
vn 0.4640 -0.7584 -0.4576
vn 0.5289 -0.6335 -0.5648
vn 0.5935 -0.8048 -0.0014
vn 0.5589 -0.8292 -0.0014
vn 0.6563 -0.7545 -0.0015
vn 0.5748 -0.7991 -0.1760
vn 0.5898 -0.8052 -0.0610
vn 0.5547 -0.8296 -0.0635
vn 0.5353 -0.8246 -0.1832
vn 0.6380 -0.7479 -0.1832
vn 0.6538 -0.7544 -0.0592
vn 0.5516 -0.7884 -0.2725
vn 0.5199 -0.8005 -0.2981
vn 0.5825 -0.7419 -0.3320
vn 0.5723 -0.6772 -0.4625
vn 0.7084 -0.7058 -0.0015
vn 0.6946 -0.6963 -0.1807
vn 0.7071 -0.7047 -0.0586
vn 0.6713 -0.6722 -0.3122
vn 0.6505 -0.6269 -0.4289
vn 0.7507 -0.6607 -0.0017
vn 0.7458 -0.6412 -0.1808
vn 0.7509 -0.6578 -0.0593
vn 0.5680 -0.5510 -0.6114
vn 0.5265 -0.6167 -0.5853
vn 0.5883 -0.5862 -0.5571
vn 0.6090 -0.4916 -0.6224
vn 0.6518 -0.3658 -0.6644
vn 0.6117 -0.4609 -0.6430
vn 0.6905 -0.2766 -0.6684
vn 0.6818 -0.2807 -0.6755
vn 0.7342 -0.5964 -0.3245
vn 0.6915 -0.5231 -0.4982
vn 0.6536 -0.4563 -0.6038
vn 0.6773 -0.3489 -0.6477
vn 0.7226 -0.3672 -0.5856
vn 0.6879 -0.2849 -0.6676
vn 0.7264 -0.2851 -0.6254
vn 0.7882 -0.6154 -0.0021
vn 0.7855 -0.5930 -0.1772
vn 0.7889 -0.6115 -0.0605
vn 0.7789 -0.5481 -0.3047
vn 0.7736 -0.4687 -0.4264
vn 0.7743 -0.3523 -0.5256
vn 0.7739 -0.2801 -0.5680
vn 0.8264 -0.5631 -0.0022
vn 0.8673 -0.4978 -0.0023
vn 0.8263 -0.5336 -0.1805
vn 0.8278 -0.5574 -0.0634
vn 0.8660 -0.4511 -0.2156
vn 0.8689 -0.4897 -0.0724
vn 0.8198 -0.5011 -0.2773
vn 0.8420 -0.4065 -0.3548
vn 0.8810 -0.3177 -0.3505
vn 0.9056 -0.3526 -0.2356
vn 0.8248 -0.3285 -0.4603
vn 0.8285 -0.2899 -0.4792
vn 0.9176 -0.3976 -0.0026
vn 0.9430 -0.3327 -0.0029
vn 0.9172 -0.3903 -0.0795
vn 0.9280 -0.2911 -0.2328
vn 0.9424 -0.3238 -0.0833
vn 0.9146 -0.2663 -0.3043
usemtl Material.002
s 1
f 2/1/1 1/2/2 5/3/3 6/4/4
f 6/4/4 7/5/5 3/6/6 2/1/1
f 5/3/3 8/7/7 11/8/8 12/9/9
f 12/9/9 13/10/10 6/4/4 5/3/3
f 14/11/11 11/8/8 8/7/7 9/12/12
f 15/13/13 12/9/9 11/8/8 14/11/11
f 16/14/14 14/11/11 9/12/12 10/15/15
f 17/16/16 15/13/13 14/11/11 16/14/14
f 18/17/17 19/18/18 13/10/10 12/9/9
f 20/19/19 18/17/17 12/9/9 15/13/13
f 21/20/20 20/19/19 15/13/13 17/16/16
f 22/21/21 23/22/22 20/19/19 21/20/20
f 4/23/23 3/6/6 7/5/5 26/24/24
f 24/25/25 26/24/24 28/26/26 29/27/27
f 29/27/27 27/28/28 25/29/29 24/25/25
f 7/5/5 6/4/4 13/10/10 30/30/30
f 30/30/30 28/26/26 26/24/24 7/5/5
f 29/27/27 28/26/26 31/31/31 32/32/32
f 27/28/28 29/27/27 32/32/32 33/33/33
f 30/30/30 13/10/10 19/18/18 34/34/34
f 34/34/34 31/31/31 28/26/26 30/30/30
f 35/35/35 34/34/34 19/18/18 18/17/17
f 23/22/22 35/35/35 18/17/17 20/19/19
f 33/33/33 32/32/32 36/36/36 37/37/37
f 31/31/31 34/34/34 38/38/38 39/39/39
f 39/39/39 36/36/36 32/32/32 31/31/31
f 40/40/40 37/37/37 36/36/36 39/39/39
f 41/41/41 38/38/38 34/34/34 35/35/35
f 42/42/42 41/41/41 35/35/35 23/22/22
f 43/43/43 42/42/42 23/22/22 22/21/21
f 40/40/40 39/39/39 44/44/44 45/45/45
f 38/38/38 41/41/41 46/46/46 47/47/47
f 47/47/47 44/44/44 39/39/39 38/38/38
f 48/48/48 45/45/45 44/44/44 47/47/47
f 49/49/49 46/46/46 41/41/41 42/42/42
f 50/50/50 47/47/47 46/46/46 49/49/49
f 51/51/51 48/48/48 47/47/47 50/50/50
f 52/52/52 49/49/49 42/42/42 43/43/43
f 53/53/53 50/50/50 49/49/49 52/52/52
f 55/54/54 54/55/55 48/48/48 51/51/51
f 56/56/56 51/51/51 50/50/50 53/53/53
f 57/57/57 55/54/54 51/51/51 56/56/56
f 62/58/58 61/59/59 58/60/60 59/61/60
f 69/62/61 68/63/62 60/64/63 61/59/59
f 70/65/64 69/62/61 61/59/59 62/58/58
f 71/66/65 16/14/14 10/15/15 64/67/66
f 72/68/67 17/16/16 16/14/14 71/66/65
f 73/69/68 74/70/69 66/71/70 65/72/71
f 75/73/72 76/74/73 74/70/69 73/69/68
f 77/75/74 73/69/68 65/72/71 67/76/75
f 78/77/76 75/73/72 73/69/68 77/75/74
f 78/77/76 77/75/74 67/76/75 68/63/62
f 79/78/77 78/77/76 68/63/62 69/62/61
f 80/79/78 21/20/20 17/16/16 72/68/67
f 81/80/79 82/81/80 76/74/73 75/73/72
f 83/82/81 81/80/79 75/73/72 78/77/76
f 84/83/82 83/82/81 78/77/76 79/78/77
f 85/84/83 22/21/21 21/20/20 80/79/78
f 86/85/84 87/86/85 82/81/80 81/80/79
f 88/87/86 70/65/64 62/58/58 63/88/87
f 90/89/88 79/78/77 69/62/61 70/65/64
f 91/90/89 90/89/88 70/65/64 88/87/86
f 92/91/90 91/90/89 88/87/86 89/92/91
f 94/93/92 95/94/93 92/91/90 93/95/92
f 96/96/94 86/85/84 81/80/79 83/82/81
f 97/97/95 96/96/94 83/82/81 84/83/82
f 97/97/95 84/83/82 79/78/77 90/89/88
f 98/98/96 97/97/95 90/89/88 91/90/89
f 99/99/97 100/100/98 97/97/95 98/98/96
f 99/99/97 98/98/96 91/90/89 92/91/90
f 101/101/99 102/102/100 100/100/98 99/99/97
f 101/101/99 99/99/97 92/91/90 95/94/93
f 103/103/101 43/43/43 22/21/21 85/84/83
f 104/104/102 105/105/103 87/86/85 86/85/84
f 106/106/104 104/104/102 86/85/84 96/96/94
f 107/107/105 106/106/104 96/96/94 97/97/95
f 108/108/106 107/107/105 97/97/95 100/100/98
f 109/109/107 108/108/106 100/100/98 102/102/100
f 110/110/108 52/52/52 43/43/43 103/103/101
f 111/111/109 53/53/53 52/52/52 110/110/108
f 112/112/110 113/113/111 105/105/103 104/104/102
f 114/114/112 115/115/113 113/113/111 112/112/110
f 116/116/114 112/112/110 104/104/102 106/106/104
f 117/117/115 114/114/112 112/112/110 116/116/114
f 117/117/115 116/116/114 106/106/104 107/107/105
f 118/118/116 119/119/117 114/114/112 117/117/115
f 120/120/118 117/117/115 107/107/105 108/108/106
f 121/121/119 118/118/116 117/117/115 120/120/118
f 121/121/119 120/120/118 108/108/106 109/109/107
f 122/122/120 56/56/56 53/53/53 111/111/109
f 123/123/121 57/57/57 56/56/56 122/122/120
f 119/119/117 124/124/122 115/115/113 114/114/112
f 125/125/123 126/126/124 124/124/122 119/119/117
f 127/127/125 125/125/123 119/119/117 118/118/116
f 126/126/124 123/123/121 122/122/120 124/124/122
f 124/124/122 122/122/120 111/111/109 115/115/113
f 115/115/113 111/111/109 110/110/108 113/113/111
f 113/113/111 110/110/108 103/103/101 105/105/103
f 105/105/103 103/103/101 85/84/83 87/86/85
f 87/86/85 85/84/83 80/79/78 82/81/80
f 82/81/80 80/79/78 72/68/67 76/74/73
f 76/74/73 72/68/67 71/66/65 74/70/69
f 74/70/69 71/66/65 64/67/66 66/71/70
