# Blender v2.83.18 OBJ File: ''
# www.blender.org
mtllib PlayerNose.mtl
o RLB_Cube.001
v -0.005931 0.048307 0.064392
v 0.009662 0.018529 0.022742
v -0.000828 0.052582 0.022254
v 0.006671 -0.021799 -0.000771
v 0.009551 0.018479 -0.000905
v -0.000862 0.052429 -0.000837
v 0.002097 0.017573 -0.066596
v 0.009441 0.018430 -0.024552
v -0.006100 0.047757 -0.065213
v -0.000896 0.052276 -0.023928
v -0.009421 0.065605 0.022540
v -0.014980 0.061909 -0.067291
v -0.009427 0.065312 -0.023941
v -0.009521 0.065607 -0.000699
v -0.009767 0.044999 -0.081374
v 0.001165 0.022620 0.065426
v 0.007071 -0.014909 -0.024572
v 0.007275 -0.014664 0.022982
v 0.006729 -0.018370 0.014730
v 0.003421 0.017739 0.060346
v -0.009472 0.045374 0.080828
v -0.015533 0.063416 0.066777
v -0.012924 0.051545 0.080334
v -0.015276 0.058360 0.075222
v -0.014243 0.065602 0.050090
v 0.003055 0.006818 -0.056829
v -0.011154 0.065176 -0.034679
v -0.003367 0.027690 -0.075998
v -0.013947 0.054953 -0.076850
v -0.005746 0.034080 0.077352
v -0.008479 0.040895 0.081186
vt 0.938230 0.933081
vt 0.938230 0.933081
vt 0.938230 0.933081
vt 0.938230 0.933081
vt 0.938230 0.933081
vt 0.938230 0.933081
vt 0.938230 0.933081
vt 0.938230 0.933081
vt 0.938230 0.933081
vt 0.938230 0.933081
vt 0.938230 0.933081
vt 0.938230 0.933081
vt 0.938230 0.933081
vt 0.938230 0.933081
vt 0.938230 0.933081
vt 0.938230 0.933081
vt 0.938230 0.933081
vt 0.938230 0.933081
vt 0.938230 0.933081
vt 0.938230 0.933081
vt 0.938230 0.933081
vt 0.938230 0.933081
vt 0.938230 0.933081
vt 0.938230 0.933081
vt 0.938230 0.933081
vt 0.938230 0.933081
vt 0.938230 0.933081
vt 0.938230 0.933081
vt 0.938230 0.933081
vt 0.938230 0.933081
vt 0.938230 0.933081
vn 0.8953 0.3948 0.2062
vn 0.8929 0.3617 0.2682
vn 0.9300 0.2535 0.2660
vn 0.9440 0.2748 0.1824
vn 0.9909 0.1101 0.0779
vn 0.9670 0.2007 0.1570
vn 0.9962 -0.0735 0.0474
vn 0.9040 0.4213 0.0727
vn 0.9937 0.1120 -0.0040
vn 0.9972 -0.0748 -0.0032
vn 0.9973 -0.0730 -0.0037
vn 0.9050 0.4255 -0.0043
vn 0.9647 0.1840 -0.1883
vn 0.9902 0.1100 -0.0859
vn 0.9956 -0.0706 -0.0621
vn 0.9831 -0.0690 -0.1697
vn 0.8963 0.3916 -0.2080
vn 0.9051 0.4174 -0.0810
vn 0.8352 0.5118 0.2014
vn 0.8320 0.4868 0.2661
vn 0.8374 0.5414 0.0750
vn 0.8348 0.5304 0.1477
vn 0.8357 0.5492 -0.0042
vn 0.8388 0.5049 -0.2038
vn 0.8385 0.5223 -0.1553
vn 0.8399 0.5366 -0.0815
vn 0.9298 0.2642 -0.2561
vn 0.8937 0.3636 -0.2627
vn 0.8358 0.4799 -0.2668
usemtl Material.001
s 1
f 1/1/1 21/2/2 31/3/3 30/4/3 16/5/4
f 2/6/5 20/7/6 18/8/7
f 3/9/8 1/1/1 16/5/4 20/7/6 2/6/5
f 5/10/9 2/6/5 18/8/7 19/11/10 4/12/11
f 6/13/12 3/9/8 2/6/5 5/10/9
f 7/14/13 8/15/14 17/16/15 26/17/16
f 9/18/17 10/19/18 8/15/14 7/14/13
f 10/19/18 6/13/12 5/10/9 8/15/14
f 8/15/14 5/10/9 4/12/11 17/16/15
f 22/20/19 24/21/20 23/22/20 21/2/2 1/1/1
f 11/23/21 25/24/22 22/20/19 1/1/1 3/9/8
f 14/25/23 11/23/21 3/9/8 6/13/12
f 12/26/24 27/27/25 13/28/26 10/19/18 9/18/17
f 7/14/13 28/29/27 15/30/28 9/18/17
f 15/30/28 29/31/29 12/26/24 9/18/17
f 13/28/26 14/25/23 6/13/12 10/19/18
